{"title":"Issey Kehte Hain Hip Hop Full Video Song - Yo Yo Honey Singh - W","uid":10401157,"size":63948386,"categoryP":"video","categoryS":"music_videos","magnet":"?xt=urn:btih:9df94110494c3eab9cab63e0213eccc17adc7278&amp;dn=Issey+Kehte+Hain+Hip+Hop+Full+Video+Song+-+Yo+Yo+Honey+Singh+-+W&amp;tr=udp%3A%2F%2Ftracker.openbittorrent.com%3A80&amp;tr=udp%3A%2F%2Fopen.demonii.com%3A1337&amp;tr=udp%3A%2F%2Ftracker.coppersurfer.tk%3A6969&amp;tr=udp%3A%2F%2Fexodus.desync.com%3A6969","seeders":3,"leechers":0,"uploader":"Palash995","files":-1,"time":1403367890,"description":"Issey Kehte Hain Hip Hop Full Video Song - Yo Yo Honey Singh - World Music Day HD 1080p\n &lt;a href=&quot;\nhttp://s26.postimg.org/5s8w96re1/isey.jpg&quot; rel=&quot;nofollow&quot; target=&quot;_NEW&quot;&gt;\nhttp://s26.postimg.org/5s8w96re1/isey.jpg&lt;/a&gt;\n\nSong Name - Issey Kehte Hain Hip Hop\nSinger - Yo Yo Honey Singh (Featuring Lil Golu)\nMusic Director - Yo Yo Honey Singh\nMusic Mixed &amp; Master - Vinod Verma\nLyrics - Yo Yo Honey Singh and Lil Golu\nMusic on T-Series\n\nOfficial Site Link:- http://www.yoyohoneysingh.com/\n\nT-Series presents to you the full video of Issey Kehte Hain Hip Hop by none other than Yo Yo Honey Singh. So put your party shoes ON and sing with us Issey Kehte Hain Hip Hop Hip Hop.\n\nScreenshots:-\n &lt;a href=&quot;\nhttp://s26.postimg.org/jzykxu42x/vlcsnap_2014_06_21_19h08m57s249.png&quot; rel=&quot;nofollow&quot; target=&quot;_NEW&quot;&gt;\nhttp://s26.postimg.org/jzykxu42x/vlcsnap_2014_06_21_19h08m57s249.png&lt;/a&gt;\n &lt;a href=&quot;\nhttp://s26.postimg.org/obn6muazt/vlcsnap_2014_06_21_19h09m07s115.png&quot; rel=&quot;nofollow&quot; target=&quot;_NEW&quot;&gt;\nhttp://s26.postimg.org/obn6muazt/vlcsnap_2014_06_21_19h09m07s115.png&lt;/a&gt;\n &lt;a href=&quot;\nhttp://s26.postimg.org/m5svsc7jd/vlcsnap_2014_06_21_19h09m44s203.png&quot; rel=&quot;nofollow&quot; target=&quot;_NEW&quot;&gt;\nhttp://s26.postimg.org/m5svsc7jd/vlcsnap_2014_06_21_19h09m44s203.png&lt;/a&gt;\n &lt;a href=&quot;\nhttp://s26.postimg.org/ddbx4nmeh/vlcsnap_2014_06_21_19h09m53s68.png&quot; rel=&quot;nofollow&quot; target=&quot;_NEW&quot;&gt;\nhttp://s26.postimg.org/ddbx4nmeh/vlcsnap_2014_06_21_19h09m53s68.png&lt;/a&gt;\n\nMedia Info:-\n\nGeneral\nComplete name : Issey Kehte Hain Hip Hop Full Video Song - Yo Yo Honey Singh - World Music Day HD 1080p {GreatPalash}.mp4\nFormat : MPEG-4\nFormat profile : Base Media\nCodec ID : isom\nFile size : 61.0 MiB\nDuration : 3mn 11s\nOverall bit rate mode : Variable\nOverall bit rate : 2 671 Kbps\nWriting application : Lavf53.31.100\n\nVideo\nID : 1\nFormat : AVC\nFormat/Info : Advanced Video Codec\nFormat profile : &lt;a class=&quot;__cf_email__&quot; href=&quot;/cdn-cgi/l/email-protection&quot; data-cfemail=&quot;eba3828c83aba7dfc5da&quot;&gt;[email&amp;#160;protected]&lt;/a&gt;&lt;script cf-hash='f9e31' type=&quot;text/javascript&quot;&gt;\n/* &lt;![CDATA[ */!function(){try{var t=&quot;currentScript&quot;in document?document.currentScript:function(){for(var t=document.getElementsByTagName(&quot;script&quot;),e=t.length;e--;)if(t[e].getAttribute(&quot;cf-hash&quot;))return t[e]}();if(t&amp;&amp;t.previousSibling){var e,r,n,i,c=t.previousSibling,a=c.getAttribute(&quot;data-cfemail&quot;);if(a){for(e=&quot;&quot;,r=parseInt(a.substr(0,2),16),n=2;a.length-n;n+=2)i=parseInt(a.substr(n,2),16)^r,e+=String.fromCharCode(i);e=document.createTextNode(e),c.parentNode.replaceChild(e,c)}}}catch(u){}}();/* ]]&gt; */&lt;/script&gt;\nFormat settings, CABAC : Yes\nFormat settings, ReFrames : 3 frames\nCodec ID : avc1\nCodec ID/Info : Advanced Video Coding\nDuration : 3mn 11s\nBit rate mode : Variable\nBit rate : 2 538 Kbps\nMaximum bit rate : 19.2 Mbps\nWidth : 1 920 pixels\nHeight : 1 080 pixels\nDisplay aspect ratio : 16:9\nFrame rate mode : Constant\nFrame rate : 25.000 fps\nStandard : PAL\nColor space : YUV\nChroma subsampling : 4:2:0\nBit depth : 8 bits\nScan type : Progressive\nBits/(Pixel*Frame) : 0.049\nStream size : 58.0 MiB (95%)\nColor primaries : BT.709\nTransfer characteristics : BT.709\nMatrix coefficients : BT.709\n\nAudio\nID : 2\nFormat : AAC\nFormat/Info : Advanced Audio Codec\nFormat profile : LC\nCodec ID : 40\nDuration : 3mn 11s\nBit rate mode : Constant\nBit rate : 126 Kbps\nChannel(s) : 2 channels\nChannel positions : Front: L R\nSampling rate : 44.1 KHz\nCompression mode : Lossy\nStream size : 2.87 MiB (5%)","torrent":{"xt":"urn:btih:9df94110494c3eab9cab63e0213eccc17adc7278","amp;dn":"Issey+Kehte+Hain+Hip+Hop+Full+Video+Song+-+Yo+Yo+Honey+Singh+-+W","amp;tr":["udp%3A%2F%2Ftracker.openbittorrent.com%3A80","udp%3A%2F%2Fopen.demonii.com%3A1337","udp%3A%2F%2Ftracker.coppersurfer.tk%3A6969","udp%3A%2F%2Fexodus.desync.com%3A6969"],"infoHash":"9df94110494c3eab9cab63e0213eccc17adc7278","infoHashBuffer":{"type":"Buffer","data":[157,249,65,16,73,76,62,171,156,171,99,224,33,62,204,193,122,220,114,120]},"announce":[],"urlList":[]}}